<?xml version="1.0" standalone="no"?>
<!DOCTYPE svg PUBLIC "-//W3C//DTD SVG 20010904//EN"
 "http://www.w3.org/TR/2001/REC-SVG-20010904/DTD/svg10.dtd">
<svg version="1.0" xmlns="http://www.w3.org/2000/svg"
 width="490.000000pt" height="490.000000pt" viewBox="0 0 490.000000 490.000000"
 preserveAspectRatio="xMidYMid meet">
<metadata>
Created by potrace 1.14, written by Peter Selinger 2001-2017
</metadata>
<g transform="translate(0.000000,490.000000) scale(0.100000,-0.100000)"
fill="#000000" stroke="none">
<path d="M2180 4315 c-8 -2 -54 -9 -102 -15 -48 -7 -91 -17 -96 -23 -5 -7 -15
-73 -22 -147 l-13 -135 -71 -23 c-39 -13 -112 -42 -163 -66 l-91 -44 -107 89
c-59 49 -110 89 -114 89 -15 0 -146 -98 -221 -164 -41 -36 -106 -101 -144
-144 -68 -77 -166 -208 -166 -223 0 -4 40 -56 89 -116 l89 -107 -30 -61 c-17
-33 -48 -105 -69 -160 l-38 -100 -43 -6 c-24 -4 -85 -10 -135 -14 -51 -4 -97
-12 -102 -19 -19 -22 -41 -225 -41 -371 0 -146 22 -349 41 -371 5 -7 51 -15
102 -19 50 -4 111 -10 135 -14 l43 -6 38 -100 c21 -55 52 -127 69 -160 l30
-61 -89 -107 c-49 -60 -89 -112 -89 -116 0 -14 97 -145 164 -221 36 -41 101
-106 144 -144 77 -69 208 -166 223 -166 5 0 56 40 114 89 l107 89 91 -44 c51
-24 124 -53 163 -66 l71 -23 13 -135 c7 -74 16 -140 21 -146 42 -52 707 -52
747 0 5 6 12 49 16 96 4 47 9 108 12 136 l6 50 72 23 c102 32 180 73 184 94 3
13 -46 69 -161 185 l-165 166 -93 -23 c-289 -71 -600 -11 -844 164 -88 62
-223 209 -277 301 -103 176 -143 323 -143 529 0 277 88 501 273 697 127 133
270 225 432 278 593 192 1224 -196 1325 -815 24 -148 18 -268 -22 -428 l-17
-68 164 -164 c91 -91 173 -165 183 -165 24 0 49 45 88 159 l33 98 111 12 c61
6 123 11 138 11 36 0 46 22 62 148 25 189 11 535 -25 602 -7 12 -21 20 -37 20
-15 0 -77 5 -138 11 l-112 12 -22 71 c-13 39 -42 112 -66 163 l-43 91 89 107
c49 59 89 111 89 116 0 20 -156 212 -241 297 -88 86 -269 232 -289 232 -5 0
-57 -40 -116 -89 l-107 -88 -91 43 c-50 24 -123 53 -162 66 l-72 22 -6 50 c-3
28 -9 90 -12 138 -4 49 -12 92 -18 97 -24 19 -151 33 -336 36 -107 2 -202 2
-210 0z"/>
<path d="M2162 3340 c-93 -25 -126 -41 -130 -64 -3 -13 80 -103 292 -315 l296
-296 -189 -189 -189 -189 -296 297 c-163 163 -303 296 -311 296 -64 0 -110
-327 -70 -500 36 -154 107 -282 220 -395 94 -94 190 -153 319 -197 79 -27 108
-32 222 -36 111 -4 143 -1 219 18 l88 22 411 -411 c349 -349 419 -414 467
-436 178 -81 373 -8 456 170 23 50 27 74 27 140 0 145 4 141 -466 611 l-410
412 21 83 c28 111 28 272 1 384 -42 171 -158 349 -292 450 -81 62 -202 119
-302 145 -106 27 -281 27 -384 0z"/>
</g>
</svg>
